<svg xmlns="http://www.w3.org/2000/svg" viewBox="0 0 500 500"><g id="freepik--background-complete--inject-1"><rect y="382.4" width="500" height="0.25" style="fill:#e6e6e6"></rect><rect x="51.65" y="394.26" width="54.34" height="0.25" style="fill:#e6e6e6"></rect><rect x="230.54" y="388.83" width="20.46" height="0.25" style="fill:#e6e6e6"></rect><rect x="151.34" y="388.83" width="29.94" height="0.25" style="fill:#e6e6e6"></rect><rect x="365.57" y="391.71" width="63.34" height="0.25" style="fill:#e6e6e6"></rect><rect x="224.93" y="391.71" width="14.29" height="0.25" style="fill:#e6e6e6"></rect><rect x="115.67" y="394.26" width="13.33" height="0.25" style="fill:#e6e6e6"></rect><rect x="437.08" y="391.71" width="8.51" height="0.25" style="fill:#e6e6e6"></rect><path d="M237,337.8H43.91a5.71,5.71,0,0,1-5.7-5.71V60.66A5.71,5.71,0,0,1,43.91,55H237a5.71,5.71,0,0,1,5.71,5.71V332.09A5.71,5.71,0,0,1,237,337.8ZM43.91,55.2a5.46,5.46,0,0,0-5.45,5.46V332.09a5.46,5.46,0,0,0,5.45,5.46H237a5.47,5.47,0,0,0,5.46-5.46V60.66A5.47,5.47,0,0,0,237,55.2Z" style="fill:#e6e6e6"></path><path d="M453.31,337.8H260.21a5.72,5.72,0,0,1-5.71-5.71V60.66A5.72,5.72,0,0,1,260.21,55h193.1A5.71,5.71,0,0,1,459,60.66V332.09A5.71,5.71,0,0,1,453.31,337.8ZM260.21,55.2a5.47,5.47,0,0,0-5.46,5.46V332.09a5.47,5.47,0,0,0,5.46,5.46h193.1a5.47,5.47,0,0,0,5.46-5.46V60.66a5.47,5.47,0,0,0-5.46-5.46Z" style="fill:#e6e6e6"></path><rect x="189.27" y="85.56" width="222.89" height="129.56" style="fill:#e6e6e6"></rect><rect x="192.28" y="85.56" width="222.89" height="129.56" style="fill:#f5f5f5"></rect><rect x="245.03" y="44.31" width="117.4" height="212.07" transform="translate(454.07 -153.39) rotate(90)" style="fill:#fff"></rect><rect x="349.92" y="149.2" width="117.4" height="2.28" transform="translate(558.97 -258.28) rotate(90)" style="fill:#e6e6e6"></rect><rect x="194.52" y="172.55" width="218.42" height="8.16" style="fill:#f5f5f5"></rect><rect x="216.4" y="296.11" width="36.6" height="81.15" style="fill:#e6e6e6"></rect><rect x="223.42" y="377.26" width="161.12" height="5.14" style="fill:#e6e6e6"></rect><rect x="253" y="296.11" width="138.58" height="81.15" transform="translate(644.57 673.37) rotate(180)" style="fill:#f5f5f5"></rect><rect x="267.38" y="306.1" width="109.8" height="26.61" transform="translate(644.57 638.81) rotate(180)" style="fill:#e6e6e6"></rect><rect x="267.38" y="340.66" width="109.8" height="26.61" transform="translate(644.57 707.92) rotate(180)" style="fill:#e6e6e6"></rect><rect x="304.22" y="317.58" width="36.14" height="3.65" rx="1.61" style="fill:#f5f5f5"></rect><rect x="304.22" y="352.14" width="36.14" height="3.65" rx="1.61" style="fill:#f5f5f5"></rect><polygon points="143.38 382.4 65.41 382.4 54.66 123.73 132.63 123.73 143.38 382.4" style="fill:#e6e6e6"></polygon><polygon points="154.67 382.4 67.41 382.4 56.66 123.73 143.92 123.73 154.67 382.4" style="fill:#f5f5f5"></polygon><polygon points="76.03 373.4 66.03 132.73 135.29 132.73 145.3 373.4 76.03 373.4" style="fill:#fff"></polygon><path d="M284.93,283.59c1-27.32,2-65.17-.11-78.87l-3.45-2.67s.75,2.55,1.15,44.41.89,30.91.47,37.13Z" style="fill:#e0e0e0"></path><path d="M291.35,193.09c6.38-8.65,19.81-14.8,33.72-14.77,5.46,0-16.26,10.06-25.05,21.15-6.83,8.61-14.36,23.1-16.82,31.14C284.38,213.69,285,201.73,291.35,193.09Z" style="fill:#e0e0e0"></path><path d="M278.55,215.62c-5.86-9-18.91-15.93-32.79-16.71-5.45-.31,15.64,11,23.77,22.57,6.31,9,13,23.9,15,32.08C284.31,236.6,284.42,224.63,278.55,215.62Z" style="fill:#e0e0e0"></path><path d="M281.17,178.65c-5.34-10.5-17.8-20.63-31.35-24.75-5.33-1.62,16.74,16.86,23.05,31,4.9,11,10.84,24.82,12.4,33.55C285.85,201.23,286.5,189.16,281.17,178.65Z" style="fill:#e0e0e0"></path><path d="M283.64,296.11h0a12.7,12.7,0,0,0,12.68-12l1.12-19.5h-27.6l1.13,19.5A12.69,12.69,0,0,0,283.64,296.11Z" style="fill:#f0f0f0"></path><polygon points="268.06 269.06 299.23 269.06 300.12 260.97 267.16 260.97 268.06 269.06" style="fill:#ebebeb"></polygon><rect x="400.58" y="79.17" width="20.64" height="56" transform="translate(821.79 214.33) rotate(180)" style="fill:#e6e6e6"></rect><rect x="390.34" y="79.17" width="10.23" height="51.5" style="fill:#f5f5f5"></rect><rect x="369.7" y="79.17" width="20.64" height="56" transform="translate(760.04 214.33) rotate(180)" style="fill:#e6e6e6"></rect><rect x="359.47" y="79.17" width="10.23" height="51.5" style="fill:#f5f5f5"></rect><rect x="338.83" y="79.17" width="20.64" height="56" transform="translate(698.3 214.33) rotate(180)" style="fill:#e6e6e6"></rect><rect x="328.6" y="79.17" width="10.23" height="51.5" style="fill:#f5f5f5"></rect><rect x="307.96" y="79.17" width="20.64" height="56" transform="translate(636.55 214.33) rotate(180)" style="fill:#e6e6e6"></rect><rect x="297.72" y="79.17" width="10.23" height="51.5" style="fill:#f5f5f5"></rect><rect x="277.08" y="79.17" width="20.64" height="56" transform="translate(574.81 214.33) rotate(180)" style="fill:#e6e6e6"></rect><rect x="266.85" y="79.17" width="10.23" height="51.5" style="fill:#f5f5f5"></rect><rect x="246.21" y="79.17" width="20.64" height="56" transform="translate(513.06 214.33) rotate(180)" style="fill:#e6e6e6"></rect><rect x="235.98" y="79.17" width="10.23" height="51.5" style="fill:#f5f5f5"></rect><rect x="215.34" y="79.17" width="20.64" height="56" transform="translate(451.32 214.33) rotate(180)" style="fill:#e6e6e6"></rect><rect x="205.11" y="79.17" width="10.23" height="51.5" style="fill:#f5f5f5"></rect><rect x="184.46" y="79.17" width="20.64" height="56" transform="translate(389.57 214.33) rotate(180)" style="fill:#e6e6e6"></rect></g><g id="freepik--Shadow--inject-1"><ellipse cx="250" cy="416.24" rx="193.89" ry="11.32" style="fill:#f5f5f5"></ellipse></g><g id="freepik--Buttons--inject-1"><circle cx="180.24" cy="113.47" r="25.67" transform="translate(29.67 264.11) rotate(-77.21)" style="fill:#2167A7"></circle><circle cx="180.24" cy="113.47" r="25.67" transform="translate(29.67 264.11) rotate(-77.21)" style="fill:#fff;opacity:0.2"></circle><path d="M177.59,146.75a33.24,33.24,0,0,1-29.19-23.3l.95-.3a32.25,32.25,0,0,0,28.32,22.6Z" style="fill:#2167A7"></path><path d="M177.59,146.75a33.24,33.24,0,0,1-29.19-23.3l.95-.3a32.25,32.25,0,0,0,28.32,22.6Z" style="fill:#fff;opacity:0.2"></path><path d="M149.21,104.22l-1-.28a33.38,33.38,0,0,1,42.82-22l-.32.95a32.4,32.4,0,0,0-41.55,21.37Z" style="fill:#2167A7"></path><path d="M149.21,104.22l-1-.28a33.38,33.38,0,0,1,42.82-22l-.32.95a32.4,32.4,0,0,0-41.55,21.37Z" style="fill:#fff;opacity:0.2"></path><path d="M211.14,103.79a32.3,32.3,0,0,0-14-17.93l.52-.86a33.35,33.35,0,0,1,14.42,18.49Z" style="fill:#2167A7"></path><path d="M211.14,103.79a32.3,32.3,0,0,0-14-17.93l.52-.86a33.35,33.35,0,0,1,14.42,18.49Z" style="fill:#fff;opacity:0.2"></path><circle cx="180.24" cy="184.34" r="25.67" transform="translate(-39.43 319.28) rotate(-77.21)" style="fill:#2167A7"></circle><circle cx="180.24" cy="184.34" r="25.67" transform="translate(-39.43 319.28) rotate(-77.21)" style="fill:#fff;opacity:0.6000000000000001"></circle><circle cx="180.24" cy="255.2" r="25.67" transform="translate(-108.54 374.45) rotate(-77.21)" style="fill:#2167A7"></circle><circle cx="180.24" cy="255.2" r="25.67" transform="translate(-108.54 374.45) rotate(-77.21)" style="fill:#fff;opacity:0.6000000000000001"></circle><circle cx="180.24" cy="326.07" r="25.67" transform="translate(-177.65 429.63) rotate(-77.21)" style="fill:#2167A7"></circle><circle cx="180.24" cy="326.07" r="25.67" transform="translate(-177.65 429.63) rotate(-77.21)" style="fill:#fff;opacity:0.6000000000000001"></circle><circle cx="109.38" cy="113.47" r="25.67" transform="translate(-25.5 195) rotate(-77.21)" style="fill:#2167A7"></circle><circle cx="109.38" cy="113.47" r="25.67" transform="translate(-25.5 195) rotate(-77.21)" style="fill:#fff;opacity:0.6000000000000001"></circle><circle cx="109.38" cy="184.34" r="25.67" transform="translate(-94.6 250.18) rotate(-77.21)" style="fill:#2167A7"></circle><circle cx="109.38" cy="184.34" r="25.67" transform="translate(-94.6 250.18) rotate(-77.21)" style="fill:#fff;opacity:0.6000000000000001"></circle><circle cx="109.38" cy="255.2" r="25.67" transform="translate(-163.71 305.35) rotate(-77.21)" style="fill:#2167A7"></circle><circle cx="109.38" cy="255.2" r="25.67" transform="translate(-163.71 305.35) rotate(-77.21)" style="fill:#fff;opacity:0.6000000000000001"></circle><circle cx="109.38" cy="326.07" r="25.67" transform="translate(-232.82 360.52) rotate(-77.21)" style="fill:#2167A7"></circle><circle cx="109.38" cy="326.07" r="25.67" transform="translate(-232.82 360.52) rotate(-77.21)" style="fill:#fff;opacity:0.6000000000000001"></circle></g><g id="freepik--Hand--inject-1"><path d="M272.2,191.88l-5.39-5.58-5.75,7.42s4.38,4.22,9.59,3Z" style="fill:#9f5b53"></path><polygon points="259.4 183.24 256.94 191.02 261.06 193.72 266.81 186.3 259.4 183.24" style="fill:#9f5b53"></polygon><path d="M186,183.66a9.68,9.68,0,0,1,13.64-5.5l-6-3.12a9.9,9.9,0,0,1-4.7-12.58,9.7,9.7,0,0,1,13.34-4.72l-6-3.11a9.9,9.9,0,0,1-4.7-12.59A9.69,9.69,0,0,1,205,137.33l-28.49-14.9a9.86,9.86,0,0,1-5-11.77,9.7,9.7,0,0,1,13.65-5.5l60,31.37L239,111.25a10.31,10.31,0,0,1,19.63-6.15l19.68,51.12a19.3,19.3,0,0,0,9.05,10.15l3.43,1.79a4.5,4.5,0,0,1,1.9,6.09l-24,45.85a4.52,4.52,0,0,1-6.09,1.91l-8.42-4.4a19.79,19.79,0,0,0-10.34-2.14,48,48,0,0,1-24.94-5.4l-28-14.64A9.86,9.86,0,0,1,186,183.66Z" style="fill:#2167A7"></path><path d="M264.74,224a6,6,0,0,1-2.78-.68l-8.42-4.4a18.51,18.51,0,0,0-9.56-2,49.52,49.52,0,0,1-25.72-5.56l-28-14.64a11.39,11.39,0,0,1-5.67-13.58,11.13,11.13,0,0,1,6.43-6.8,9.66,9.66,0,0,1,1.25-.42,11.37,11.37,0,0,1-4.66-14.1,11,11,0,0,1,6.53-6.07c.27-.09.54-.18.81-.25a11.36,11.36,0,0,1-4.66-14.1,11,11,0,0,1,6.53-6.06c.25-.09.51-.17.76-.24l-21.76-11.38a11.39,11.39,0,0,1-5.67-13.58,11.2,11.2,0,0,1,15.76-6.35L243,133.67l-5.39-22.07a11.8,11.8,0,0,1,22.48-7l19.68,51.12a17.79,17.79,0,0,0,8.35,9.36l3.42,1.79a6,6,0,0,1,2.54,8.11l-24,45.86A6,6,0,0,1,264.74,224Zm-19.63-10.09a21.21,21.21,0,0,1,9.82,2.35l8.42,4.4a3,3,0,0,0,4.07-1.27l24-45.86a3,3,0,0,0-1.28-4.06l-3.42-1.79A20.72,20.72,0,0,1,277,156.76l-19.69-51.12a8.8,8.8,0,0,0-16.77,5.25l6.18,25.29a1.49,1.49,0,0,1-.53,1.53,1.48,1.48,0,0,1-1.62.15l-60-31.37a8.17,8.17,0,0,0-6.82-.33,8,8,0,0,0-4.71,5,8.38,8.38,0,0,0,4.22,10l28.5,14.9a1.5,1.5,0,0,1-1.39,2.66,8.18,8.18,0,0,0-6.5-.45,8.07,8.07,0,0,0-4.78,4.43,8.39,8.39,0,0,0,4,10.66l6,3.12h0a1.5,1.5,0,0,1-1.39,2.65h0a8.19,8.19,0,0,0-6.49-.45,8.09,8.09,0,0,0-4.78,4.44,8.39,8.39,0,0,0,4,10.65l6,3.12h0a1.5,1.5,0,0,1-1.39,2.66h0a8.21,8.21,0,0,0-6.82-.32,8.06,8.06,0,0,0-4.7,5h0a8.37,8.37,0,0,0,4.22,10l28,14.64A46.62,46.62,0,0,0,243.81,214C244.25,214,244.68,213.93,245.11,213.93ZM186,183.66h0Z" style="fill:#2167A7"></path><path d="M207.13,183.57a1.48,1.48,0,0,1-.7-.17L199,179.49a1.5,1.5,0,1,1,1.39-2.66l7.47,3.91a1.5,1.5,0,0,1-.69,2.83Z" style="fill:#2167A7"></path><path d="M209.81,163.15a1.45,1.45,0,0,1-.7-.17l-7.47-3.91a1.5,1.5,0,1,1,1.39-2.65l7.47,3.9a1.5,1.5,0,0,1-.69,2.83Z" style="fill:#2167A7"></path><path d="M212.48,142.74a1.56,1.56,0,0,1-.69-.17l-7.47-3.91a1.5,1.5,0,1,1,1.39-2.66l7.47,3.91a1.5,1.5,0,0,1-.7,2.83Z" style="fill:#2167A7"></path><path d="M264.74,224a6,6,0,0,1-2.78-.68l-8.42-4.4a18.51,18.51,0,0,0-9.56-2,49.52,49.52,0,0,1-25.72-5.56l-28-14.64a11.39,11.39,0,0,1-5.67-13.58,11.13,11.13,0,0,1,6.43-6.8,9.66,9.66,0,0,1,1.25-.42,11.37,11.37,0,0,1-4.66-14.1,11,11,0,0,1,6.53-6.07c.27-.09.54-.18.81-.25a11.36,11.36,0,0,1-4.66-14.1,11,11,0,0,1,6.53-6.06c.25-.09.51-.17.76-.24l-21.76-11.38a11.39,11.39,0,0,1-5.67-13.58,11.2,11.2,0,0,1,15.76-6.35L243,133.67l-5.39-22.07a11.8,11.8,0,0,1,22.48-7l19.68,51.12a17.79,17.79,0,0,0,8.35,9.36l3.42,1.79a6,6,0,0,1,2.54,8.11l-24,45.86A6,6,0,0,1,264.74,224Zm-19.63-10.09a21.21,21.21,0,0,1,9.82,2.35l8.42,4.4a3,3,0,0,0,4.07-1.27l24-45.86a3,3,0,0,0-1.28-4.06l-3.42-1.79A20.72,20.72,0,0,1,277,156.76l-19.69-51.12a8.8,8.8,0,0,0-16.77,5.25l6.18,25.29a1.49,1.49,0,0,1-.53,1.53,1.48,1.48,0,0,1-1.62.15l-60-31.37a8.17,8.17,0,0,0-6.82-.33,8,8,0,0,0-4.71,5,8.38,8.38,0,0,0,4.22,10l28.5,14.9a1.5,1.5,0,0,1-1.39,2.66,8.18,8.18,0,0,0-6.5-.45,8.07,8.07,0,0,0-4.78,4.43,8.39,8.39,0,0,0,4,10.66l6,3.12h0a1.5,1.5,0,0,1-1.39,2.65h0a8.19,8.19,0,0,0-6.49-.45,8.09,8.09,0,0,0-4.78,4.44,8.39,8.39,0,0,0,4,10.65l6,3.12h0a1.5,1.5,0,0,1-1.39,2.66h0a8.21,8.21,0,0,0-6.82-.32,8.06,8.06,0,0,0-4.7,5h0a8.37,8.37,0,0,0,4.22,10l28,14.64A46.62,46.62,0,0,0,243.81,214C244.25,214,244.68,213.93,245.11,213.93ZM186,183.66h0Z" style="opacity:0.30000000000000004"></path></g></svg>