<svg width="24" height="24" viewBox="0 0 24 24" fill="none" xmlns="http://www.w3.org/2000/svg">
<g id="gear" clip-path="url(#clip0_2322_15003)">
<path id="Vector" fill-rule="evenodd" clip-rule="evenodd" d="M13.2665 2.44997C12.8975 1.19747 11.1245 1.19747 10.7555 2.44997L10.6145 2.92847C10.4959 3.33039 10.2889 3.70069 10.0087 4.01225C9.72843 4.32381 9.38206 4.56874 8.9949 4.72909C8.60775 4.88945 8.18963 4.96117 7.77117 4.939C7.35271 4.91683 6.94451 4.80133 6.57647 4.60097L6.13847 4.36097C4.99247 3.73847 3.73847 4.99097 4.36247 6.13847L4.60097 6.57647C4.80133 6.94451 4.91683 7.35271 4.939 7.77117C4.96117 8.18963 4.88945 8.60775 4.72909 8.9949C4.56874 9.38206 4.32381 9.72843 4.01225 10.0087C3.70069 10.2889 3.33039 10.4959 2.92847 10.6145L2.44997 10.7555C1.19747 11.1245 1.19747 12.8975 2.44997 13.2665L2.92847 13.4075C3.3306 13.526 3.7011 13.733 4.01282 14.0134C4.32454 14.2937 4.56956 14.6402 4.72994 15.0276C4.89031 15.4149 4.96197 15.8333 4.93965 16.2519C4.91734 16.6705 4.80161 17.0789 4.60097 17.447L4.36097 17.8835C3.73847 19.0295 4.99097 20.2835 6.13847 19.6595L6.57647 19.421C6.94461 19.2206 7.35291 19.1052 7.77145 19.0831C8.18999 19.061 8.60817 19.1329 8.99535 19.2934C9.38252 19.4539 9.72887 19.699 10.009 20.0107C10.2892 20.3225 10.4961 20.6929 10.6145 21.095L10.7555 21.572C11.1245 22.8245 12.8975 22.8245 13.2665 21.572L13.4075 21.0935C13.526 20.6913 13.733 20.3208 14.0134 20.0091C14.2937 19.6974 14.6402 19.4524 15.0276 19.292C15.4149 19.1316 15.8333 19.06 16.2519 19.0823C16.6705 19.1046 17.0789 19.2203 17.447 19.421L17.8835 19.661C19.0295 20.2835 20.2835 19.031 19.6595 17.8835L19.421 17.447C19.2203 17.0788 19.1047 16.6703 19.0825 16.2516C19.0602 15.8329 19.132 15.4145 19.2925 15.0271C19.4531 14.6398 19.6983 14.2933 20.0102 14.013C20.322 13.7327 20.6927 13.5258 21.095 13.4075L21.572 13.2665C22.8245 12.8975 22.8245 11.1245 21.572 10.7555L21.0935 10.6145C20.6916 10.4959 20.3213 10.2889 20.0097 10.0087C19.6981 9.72843 19.4532 9.38206 19.2928 8.9949C19.1325 8.60775 19.0608 8.18963 19.0829 7.77117C19.1051 7.35271 19.2206 6.94451 19.421 6.57647L19.661 6.13847C20.2835 4.99247 19.031 3.73847 17.8835 4.36247L17.447 4.60097C17.0788 4.8019 16.6703 4.91785 16.2515 4.94031C15.8327 4.96277 15.4142 4.89118 15.0266 4.73078C14.6391 4.57039 14.2924 4.32526 14.0119 4.01339C13.7315 3.70151 13.5244 3.33081 13.406 2.92847L13.265 2.44997H13.2665ZM9.31697 2.02547C10.1075 -0.659531 13.9145 -0.659531 14.705 2.02547L14.846 2.50397C14.9012 2.6914 14.9976 2.8641 15.1282 3.00941C15.2589 3.15472 15.4203 3.26895 15.6009 3.34375C15.7814 3.41854 15.9763 3.45199 16.1714 3.44165C16.3666 3.4313 16.5569 3.37743 16.7285 3.28397L17.1665 3.04397C19.6265 1.70597 22.3175 4.39547 20.9765 6.85547L20.738 7.29347C20.6445 7.46506 20.5906 7.65539 20.5803 7.8505C20.57 8.04562 20.6034 8.24057 20.6782 8.42108C20.753 8.60159 20.8672 8.76307 21.0125 8.89369C21.1578 9.02432 21.3305 9.12076 21.518 9.17597L21.9965 9.31697C24.6815 10.1075 24.6815 13.9145 21.9965 14.705L21.518 14.846C21.3305 14.9012 21.1578 14.9976 21.0125 15.1282C20.8672 15.2589 20.753 15.4203 20.6782 15.6009C20.6034 15.7814 20.57 15.9763 20.5803 16.1714C20.5906 16.3666 20.6445 16.5569 20.738 16.7285L20.978 17.1665C22.3175 19.6265 19.625 22.3175 17.1665 20.9765L16.7285 20.738C16.5569 20.6445 16.3666 20.5906 16.1714 20.5803C15.9763 20.57 15.7814 20.6034 15.6009 20.6782C15.4203 20.753 15.2589 20.8672 15.1282 21.0125C14.9976 21.1578 14.9012 21.3305 14.846 21.518L14.705 21.9965C13.9145 24.6815 10.1075 24.6815 9.31697 21.9965L9.17597 21.518C9.12076 21.3305 9.02432 21.1578 8.89369 21.0125C8.76307 20.8672 8.60159 20.753 8.42108 20.6782C8.24057 20.6034 8.04562 20.57 7.8505 20.5803C7.65539 20.5906 7.46506 20.6445 7.29347 20.738L6.85547 20.978C4.39547 22.3175 1.70597 19.625 3.04547 17.1665L3.28397 16.7285C3.37743 16.5569 3.4313 16.3666 3.44165 16.1714C3.45199 15.9763 3.41854 15.7814 3.34375 15.6009C3.26895 15.4203 3.15472 15.2589 3.00941 15.1282C2.8641 14.9976 2.6914 14.9012 2.50397 14.846L2.02547 14.705C-0.659531 13.9145 -0.659531 10.1075 2.02547 9.31697L2.50397 9.17597C2.6914 9.12076 2.8641 9.02432 3.00941 8.89369C3.15472 8.76307 3.26895 8.60159 3.34375 8.42108C3.41854 8.24057 3.45199 8.04562 3.44165 7.8505C3.4313 7.65539 3.37743 7.46506 3.28397 7.29347L3.04397 6.85547C1.70597 4.39547 4.39697 1.70597 6.85547 3.04547L7.29347 3.28397C7.46506 3.37743 7.65539 3.4313 7.8505 3.44165C8.04562 3.45199 8.24057 3.41854 8.42108 3.34375C8.60159 3.26895 8.76307 3.15472 8.89369 3.00941C9.02432 2.8641 9.12076 2.6914 9.17597 2.50397L9.31697 2.02547Z" fill="black"/>
<path id="Vector_2" fill-rule="evenodd" clip-rule="evenodd" d="M11.9999 8.63086C11.1063 8.63086 10.2494 8.98581 9.61762 9.61762C8.98581 10.2494 8.63086 11.1063 8.63086 11.9999C8.63086 12.8934 8.98581 13.7503 9.61762 14.3821C10.2494 15.0139 11.1063 15.3689 11.9999 15.3689C12.8934 15.3689 13.7503 15.0139 14.3821 14.3821C15.0139 13.7503 15.3689 12.8934 15.3689 11.9999C15.3689 11.1063 15.0139 10.2494 14.3821 9.61762C13.7503 8.98581 12.8934 8.63086 11.9999 8.63086ZM7.13086 11.9999C7.13086 11.3605 7.2568 10.7273 7.50149 10.1366C7.74618 9.54584 8.10483 9.00909 8.55696 8.55696C9.00908 8.10483 9.54584 7.74618 10.1366 7.50149C10.7273 7.2568 11.3605 7.13086 11.9999 7.13086C12.6393 7.13086 13.2724 7.2568 13.8631 7.50149C14.4539 7.74618 14.9906 8.10483 15.4428 8.55696C15.8949 9.00909 16.2535 9.54584 16.4982 10.1366C16.7429 10.7273 16.8689 11.3605 16.8689 11.9999C16.8689 13.2912 16.3559 14.5296 15.4428 15.4428C14.5296 16.3559 13.2912 16.8689 11.9999 16.8689C10.7085 16.8689 9.47007 16.3559 8.55696 15.4428C7.64384 14.5296 7.13086 13.2912 7.13086 11.9999Z" fill="black"/>
</g>
<defs>
<clipPath id="clip0_2322_15003">
<rect width="24" height="24" fill="white"/>
</clipPath>
</defs>
</svg>
