<svg xmlns="http://www.w3.org/2000/svg" viewBox="0 0 500 500"><g id="freepik--Floor--inject-1--inject-315"><path id="freepik--floor--inject-1--inject-315" d="M99.67,433.12c82.5,44.74,216.26,44.75,298.76,0s82.5-117.31,0-162.06-216.26-44.75-298.76,0S17.16,388.37,99.67,433.12Z" style="fill:#f0f0f0;opacity:0.7000000000000001"></path></g><g id="freepik--Shadow--inject-1--inject-315"><ellipse id="freepik--shadow--inject-1--inject-315" cx="150.39" cy="305.55" rx="57.03" ry="27.18" style="fill:#e0e0e0"></ellipse></g><g id="freepik--Plants--inject-1--inject-315"><g id="freepik--plants--inject-1--inject-315"><g id="freepik--plants--inject-1--inject-315"><path d="M78.72,303.78l6.41-3.66s3.08-16.94.78-31.5c-3.24-20.48-17.18-27.54-22.24-25.51s-6.25,8.1,2.89,19.93C72,270,78.9,284.78,78.72,303.78Z" style="fill:#CBF2C5"></path><g style="opacity:0.1"><path d="M78.72,303.78l6.41-3.66s3.08-16.94.78-31.5c-3.24-20.48-17.18-27.54-22.24-25.51s-6.25,8.1,2.89,19.93C72,270,78.9,284.78,78.72,303.78Z"></path></g><path d="M81.05,295.65H81a.47.47,0,0,1-.39-.52C83.24,276,75.53,255,66.87,246.5a.46.46,0,0,1,.64-.66c8.82,8.62,16.68,30,14,49.42A.46.46,0,0,1,81.05,295.65Z" style="fill:#fff"></path><path d="M60.94,314.06c-1,.58-3.1-.69-3.9-1.23a9.72,9.72,0,0,1-3.22-3.69,9.1,9.1,0,0,1-.8-5.44,20.59,20.59,0,0,1,.69-2.89l.81-2.81a7.24,7.24,0,0,0,.41-2.83c-.25-1.92-2-3.27-3.5-4.43-1.72-1.28-3.5-3-3.49-5.29a8.14,8.14,0,0,1,2-4.84c1.1-1.4,2.41-2.63,3.41-4.11a5.74,5.74,0,0,0,1.17-3.59,6.05,6.05,0,0,0-.79-2.25,31.65,31.65,0,0,1-2.45-4.5c-.57-1.62-.49-3.63.78-4.79a5.28,5.28,0,0,1,4-1,9,9,0,0,1,3.7,1.3c3.67,2,5.77,6.38,9.66,8a41.13,41.13,0,0,0,4.72,1.15A5.78,5.78,0,0,1,78,273.46c1.43,2.86-1.22,6.37-.21,9.41.89,2.68,3.49,3.7,5,6.12a5.76,5.76,0,0,1,.68,3.51A16.76,16.76,0,0,1,82,298.44a42.77,42.77,0,0,1-3.26,5.34C78.66,303.84,61.09,314,60.94,314.06Z" style="fill:#CBF2C5"></path><path d="M71.34,308.51h0a.45.45,0,0,1-.44-.47c.75-18.15-7.8-38.18-14-44a.45.45,0,0,1,.62-.66c6.34,5.93,15.07,26.3,14.3,44.69A.45.45,0,0,1,71.34,308.51Z" style="fill:#fff"></path><path d="M68.63,287.08l-.14,0a61.51,61.51,0,0,0-13.17-2.13.46.46,0,0,1,0-.91,62.62,62.62,0,0,1,13.4,2.16.46.46,0,0,1-.13.9Z" style="fill:#fff"></path></g><g id="freepik--plants--inject-1--inject-315"><path d="M391.77,396.11c3.45-7.5,16-20.54,28.25-26.7s27.74-7.66,35.07-.7c6.82,6.48,1.07,16.69-12,19.22s-31.86,4.59-41.76,14.77l-15.91,10.76Z" style="fill:#CBF2C5"></path><path d="M391.77,396.11c3.45-7.5,16-20.54,28.25-26.7s27.74-7.66,35.07-.7c6.82,6.48,1.07,16.69-12,19.22s-31.86,4.59-41.76,14.77l-15.91,10.76Z" style="opacity:0.1"></path><path d="M386.51,406.11a.61.61,0,0,0,.7-.21c16.77-23.29,47-34.58,61.52-33.49a.61.61,0,0,0,.65-.56.6.6,0,0,0-.56-.64c-14.78-1.12-45.57,10.34-62.59,34a.6.6,0,0,0,.14.84A.39.39,0,0,0,386.51,406.11Z" style="fill:#fff"></path><path d="M382.81,424.24c3.14-3.66,11.48-8.25,22.44-10.17,12.13-2.13,25.12.3,30.08-3.41,5.95-4.46,3.52-12.37-6.47-15.54s-32.56,2.1-44.14,20.31Z" style="fill:#CBF2C5"></path><path d="M383,419a.6.6,0,0,0,.64-.15c17.91-18.32,38.17-18.33,46.38-15.78a.6.6,0,0,0,.75-.4.59.59,0,0,0-.39-.75c-9.08-2.82-29.32-2.61-47.61,16.09a.6.6,0,0,0,0,.85A.59.59,0,0,0,383,419Z" style="fill:#fff"></path></g></g></g><g id="freepik--Line--inject-1--inject-315"><g id="freepik--line--inject-1--inject-315"><g id="freepik--Arrow--inject-1--inject-315"><polygon points="201.24 330.23 212.98 337 209.07 339.26 224.71 339.26 224.71 330.23 220.8 332.49 209.07 325.71 201.24 330.23" style="fill:#CBF2C5"></polygon></g><g id="freepik--line--inject-1--inject-315"><path d="M231.54,344.17a.94.94,0,0,1-.48-.13l-2.92-1.69a1,1,0,0,1-.35-1.31,1,1,0,0,1,1.32-.36l2.92,1.69a1,1,0,0,1-.49,1.8Z" style="fill:#CBF2C5"></path><path d="M354.57,415.2a.94.94,0,0,1-.48-.13l-5.63-3.25a1,1,0,0,1,1-1.67l5.62,3.25a1,1,0,0,1-.48,1.8Zm-13.67-7.9a1,1,0,0,1-.48-.12l-5.63-3.25a1,1,0,1,1,1-1.67l5.63,3.25a1,1,0,0,1-.49,1.79Zm-13.67-7.89a.94.94,0,0,1-.48-.13L321.12,396a1,1,0,0,1-.35-1.31,1,1,0,0,1,1.32-.35l5.63,3.25a1,1,0,0,1-.49,1.79Zm-13.67-7.89a.94.94,0,0,1-.48-.13l-5.63-3.25a1,1,0,0,1-.35-1.31,1,1,0,0,1,1.32-.36l5.62,3.25a1,1,0,0,1-.48,1.8Zm-13.67-7.89a.94.94,0,0,1-.48-.13l-5.63-3.25a1,1,0,0,1,1-1.67l5.63,3.25a1,1,0,0,1,.35,1.32A1,1,0,0,1,299.89,383.63Zm-13.67-7.89a1,1,0,0,1-.48-.13l-5.63-3.25a1,1,0,1,1,1-1.67l5.63,3.25a1,1,0,0,1,.35,1.31A1,1,0,0,1,286.22,375.74Zm-13.67-7.9a1,1,0,0,1-.48-.12l-5.63-3.25a1,1,0,0,1,1-1.67l5.63,3.25a1,1,0,0,1-.49,1.79ZM258.88,360a.94.94,0,0,1-.48-.13l-5.63-3.25a1,1,0,0,1-.35-1.31,1,1,0,0,1,1.32-.36l5.63,3.25a1,1,0,0,1-.49,1.8Zm-13.67-7.89a.94.94,0,0,1-.48-.13l-5.63-3.25a1,1,0,0,1,1-1.67l5.63,3.25a1,1,0,0,1,.35,1.32A1,1,0,0,1,245.21,352.06Z" style="fill:#CBF2C5"></path><path d="M365.53,421.52a1,1,0,0,1-.48-.12l-2.92-1.69a1,1,0,0,1-.35-1.31,1,1,0,0,1,1.32-.36l2.91,1.69a1,1,0,0,1-.48,1.79Z" style="fill:#CBF2C5"></path></g></g></g><g id="freepik--Pin--inject-1--inject-315"><g id="freepik--pin--inject-1--inject-315"><path d="M429.3,169.32h0l-.9-.52-27.94-16a38.52,38.52,0,0,0-21.82-6.39c-9.77,0-19.63,3.54-31.24,10-40.57,22.48-75.23,87.3-75.23,129.86V298c0,51.58,67.84,114.54,67.84,114.54l28.13,16.25a.12.12,0,0,0,.12.05c-.94-1.11,29.89-46.09,59-133.83C459.4,197.85,429.9,169.88,429.3,169.32ZM381.82,323.54c-23,13.27-42.23,6.32-47.68-15.09C323.61,307,316,298.9,313.65,285.6c-2.95-43,19.87-77.19,52.55-91.07,14-5.09,25.68-1.46,31.94,9.06,19.2-3.3,32.94,9.86,32.94,34.64C431.08,269.63,409,307.85,381.82,323.54Z" style="fill:#455a64"></path><path d="M431.08,238.23c0,31.4-22.05,69.62-49.26,85.31-23,13.27-42.23,6.32-47.68-15.09,6.91,1,15.07-.85,23.84-5.92,24.92-14.37,45.1-49.35,45.1-78.09,0-8.54-1.78-15.57-4.94-20.85C417.34,200.29,431.08,213.45,431.08,238.23Z" style="fill:#263238"></path><polygon points="343.44 305.45 359.07 314.48 359.07 284.2 343.44 275.17 343.44 305.45" style="fill:#CBF2C5"></polygon><polygon points="343.44 305.45 359.07 314.48 359.07 284.2 343.44 275.17 343.44 305.45" style="opacity:0.2"></polygon><polygon points="418.03 250.16 381.8 233.18 345.57 292 359.07 284.2 359.07 314.48 376.19 304.6 376.19 284.79 387.4 278.32 387.4 298.12 404.54 288.22 404.54 257.94 418.03 250.16" style="fill:#CBF2C5"></polygon><polygon points="366.16 224.15 381.8 233.18 345.57 292 329.93 282.97 366.16 224.15" style="fill:#CBF2C5"></polygon><polygon points="366.16 224.15 381.8 233.18 345.57 292 329.93 282.97 366.16 224.15" style="opacity:0.1"></polygon><polygon points="366.16 224.15 381.8 233.18 418.03 250.16 402.39 241.13 366.16 224.15" style="fill:#CBF2C5"></polygon><polygon points="366.16 224.15 381.8 233.18 418.03 250.16 402.39 241.13 366.16 224.15" style="fill:#fff;opacity:0.4"></polygon><polygon points="376.19 304.6 387.4 298.12 387.4 278.32 376.19 284.79 376.19 304.6" style="fill:#CBF2C5"></polygon><polygon points="376.19 304.6 387.4 298.12 387.4 278.32 376.19 284.79 376.19 304.6" style="opacity:0.2"></polygon><path d="M429.3,169.32h0l-.9-.52c-13.56-7.62-31.68-6.6-51.59,4.88-30,17.35-56,53.79-68.29,92-4.88,15.15-6.94,23.17-6.94,37.82v11.77c0,39.75,44.32,93.22,65.05,112.31a9.35,9.35,0,0,0,1.51,1.14.12.12,0,0,0,.12.05,10.18,10.18,0,0,0,14.5-4.2C400.62,388,452.7,277.75,452.7,235V223.27C452.7,196.77,443.74,178,429.3,169.32ZM334.14,308.45c-.28-1.09-.54-2.23-.74-3.4a53.85,53.85,0,0,1-.84-9.94c0-31.4,22-69.61,49.26-85.3a58.84,58.84,0,0,1,9-4.24,42.45,42.45,0,0,1,7.33-2c19.2-3.3,32.94,9.86,32.94,34.64,0,31.4-22.05,69.62-49.26,85.31C358.85,336.81,339.59,329.86,334.14,308.45Z" style="fill:#37474f"></path></g></g><g id="freepik--Clouds--inject-1--inject-315"><g id="freepik--clouds--inject-1--inject-315"><path d="M317.79,72.83l7.45-4.3a6.62,6.62,0,0,1-.06-.91V65.46a13.31,13.31,0,0,1,6-10.42,4.66,4.66,0,0,1,3.59-.69c.55-5.46,4.33-11.63,8.93-14.28,5-2.87,9-.55,9,5.2v3.22a15.56,15.56,0,0,1-.76,4.62l6.19-3.57c1.84-1.06,3.33-.2,3.33,1.93a7.38,7.38,0,0,1-3.33,5.78L317.79,80.54c-1.84,1.06-3.33.2-3.33-1.93A7.38,7.38,0,0,1,317.79,72.83Z" style="fill:#f0f0f0"></path><path d="M282.12,122.84l5.62-3.25a5,5,0,0,1-.05-.69v-1.62a10.06,10.06,0,0,1,4.54-7.87,3.5,3.5,0,0,1,2.71-.52,15.19,15.19,0,0,1,6.74-10.78c3.75-2.17,6.8-.41,6.8,3.92v2.44a11.69,11.69,0,0,1-.58,3.48l4.67-2.69c1.39-.8,2.52-.15,2.52,1.45a5.59,5.59,0,0,1-2.52,4.37l-30.45,17.57c-1.39.81-2.52.16-2.52-1.45A5.56,5.56,0,0,1,282.12,122.84Z" style="fill:#f0f0f0"></path></g></g></svg>